<svg width="51" height="60" viewBox="0 0 51 60" fill="none" xmlns="http://www.w3.org/2000/svg">
<path d="M50.1088 28.1308L21.333 0.713044C20.8529 0.255334 20.215 -1.34171e-06 19.5517 -1.3707e-06C18.8883 -1.3997e-06 18.2504 0.255333 17.7703 0.713044L17.7393 0.744025C17.5057 0.965914 17.3197 1.233 17.1927 1.52903C17.0656 1.82507 17 2.14386 17 2.46603C17 2.78819 17.0656 3.10698 17.1927 3.40302C17.3197 3.69905 17.5057 3.96614 17.7393 4.18803L44.837 30.0052L17.7393 55.812C17.5057 56.0339 17.3197 56.3009 17.1927 56.597C17.0656 56.893 17 57.2118 17 57.534C17 57.8561 17.0656 58.1749 17.1927 58.471C17.3197 58.767 17.5057 59.0341 17.7393 59.256L17.7703 59.2869C18.2504 59.7447 18.8883 60 19.5517 60C20.215 60 20.8529 59.7447 21.333 59.2869L50.1088 31.8692C50.3619 31.628 50.5634 31.338 50.701 31.0167C50.8387 30.6954 50.9097 30.3495 50.9097 30C50.9097 29.6504 50.8387 29.3045 50.701 28.9832C50.5634 28.6619 50.3619 28.372 50.1088 28.1308Z" fill="#0077B9"/>
<path d="M33.1088 28.1308L4.33305 0.713044C3.85291 0.255334 3.21501 -1.34171e-06 2.55166 -1.3707e-06C1.88831 -1.3997e-06 1.25042 0.255333 0.770287 0.713044L0.7393 0.744025C0.505733 0.965914 0.319748 1.233 0.192657 1.52903C0.0655669 1.82507 2.66092e-05 2.14386 2.65951e-05 2.46603C2.6581e-05 2.78819 0.0655669 3.10698 0.192657 3.40302C0.319748 3.69905 0.505733 3.96614 0.7393 4.18803L27.837 30.0052L0.739297 55.812C0.505731 56.0339 0.319745 56.3009 0.192655 56.597C0.0655645 56.893 2.42021e-05 57.2118 2.4188e-05 57.534C2.41739e-05 57.8561 0.0655645 58.1749 0.192655 58.471C0.319745 58.767 0.505731 59.0341 0.739297 59.256L0.770284 59.2869C1.25042 59.7447 1.88831 60 2.55166 60C3.21501 60 3.85291 59.7447 4.33304 59.2869L33.1088 31.8692C33.3619 31.628 33.5634 31.338 33.701 31.0167C33.8387 30.6954 33.9097 30.3495 33.9097 30C33.9097 29.6504 33.8387 29.3045 33.701 28.9832C33.5634 28.6619 33.3619 28.372 33.1088 28.1308Z" fill="#0077B9"/>
</svg>
