<svg width="26" height="35" viewBox="0 0 26 35" fill="none" xmlns="http://www.w3.org/2000/svg">
<path d="M6.89959 0.185391L5.3727 0.658025C4.01315 1.0793 2.79901 1.89087 1.8732 2.99721C0.947379 4.10355 0.34841 5.45862 0.146791 6.90292C-0.485685 11.428 0.928335 16.7188 4.33774 22.7865C7.73863 28.8388 11.4824 32.7381 15.603 34.4448C16.927 34.9931 18.3764 35.1392 19.7789 34.8657C21.1813 34.5922 22.4779 33.9107 23.5143 32.9022L24.6685 31.7775C25.418 31.0486 25.8845 30.065 25.9812 29.0093C26.078 27.9537 25.7984 26.8978 25.1945 26.038L22.3069 21.9244C21.9165 21.369 21.3667 20.9531 20.7347 20.7349C20.1026 20.5167 19.42 20.5073 18.7825 20.7078L14.4148 22.0797L14.3019 22.1016C13.8206 22.1738 12.709 21.1038 11.3248 18.64C9.87669 16.0624 9.57856 14.5548 9.97678 14.1653L12.1979 12.0363C13.0093 11.2577 13.5636 10.2381 13.7831 9.11988C14.0027 8.00171 13.8766 6.84099 13.4224 5.80011L12.0126 2.58138C11.5887 1.6128 10.8365 0.835652 9.89613 0.394821C8.95579 -0.0460102 7.88939 -0.120446 6.89959 0.185391ZM10.0747 3.47851L11.4802 6.69724C11.753 7.32155 11.829 8.01785 11.6977 8.68874C11.5663 9.35963 11.2342 9.97155 10.7477 10.4389L8.52017 12.5702C7.09338 13.9574 7.56613 16.325 9.48273 19.7341C11.2843 22.9418 12.9283 24.526 14.6959 24.2503L14.9599 24.1934L19.4064 22.7996C19.619 22.7325 19.8466 22.7355 20.0574 22.8081C20.2682 22.8807 20.4517 23.0193 20.5819 23.2044L23.4696 27.3181C23.772 27.7479 23.9121 28.276 23.8639 28.8041C23.8157 29.3322 23.5825 29.8243 23.2077 30.1889L22.0513 31.3136C21.311 32.0335 20.385 32.52 19.3835 32.7151C18.382 32.9102 17.3471 32.8058 16.4016 32.4142C12.7857 30.9175 9.36773 27.3575 6.18406 21.6924C2.99187 16.0143 1.69923 11.1851 2.25504 7.21363C2.39892 6.18178 2.82673 5.21365 3.48809 4.42322C4.14946 3.6328 5.01685 3.05299 5.98814 2.75206L7.51503 2.27942C8.01006 2.12658 8.54229 2.16395 9.01248 2.38458C9.48267 2.60521 9.85871 2.99402 10.0705 3.47851" fill="#0077B9"/>
</svg>
